<?xml version="1.0" encoding="UTF-8" standalone="no"?>
<svg width="92px" height="92px" viewBox="0 0 92 92" version="1.1" xmlns="http://www.w3.org/2000/svg" xmlns:xlink="http://www.w3.org/1999/xlink">
    <!-- Generator: Sketch 50.2 (55047) - http://www.bohemiancoding.com/sketch -->
    <title>fastFasterLogo</title>
    <desc>Created with Sketch.</desc>
    <defs></defs>
    <g id="Page-1" stroke="none" stroke-width="1" fill="none" fill-rule="evenodd">
        <path d="M58.4911399,36 L76.8331435,36 L89.8846139,36 C90.6145878,39.2161137 91,42.5630602 91,46 C91,70.8528137 70.8473212,91 45.9877322,91 C21.6302446,91 1.79145183,71.6584404 1.00000026,47.5000079 L14.0027944,47.5 C14.5451626,61.7272434 24.3063945,73.5933603 37.4854149,77.2988568 L37.4854149,43.5 L14.0946426,43.5 L1.0437539,43.5 C2.3413118,19.8100274 21.9672645,1 45.9877322,1 C65.9581549,1 82.8910338,14.0017265 88.7790071,32 L75.1846737,32 C69.9220633,21.3358824 58.9368589,14 46.2378003,14 C46.1541891,14 46.0706521,14.000318 45.9871906,14.0009529 L33.4843244,36 L15.6424572,36 C19.9014402,23.2888077 31.8642641,14.1083828 45.9871906,14.0009529 Z M53.9899131,77.5627411 C68.0616792,74.0925059 78.4965923,61.3895231 78.4965923,46.25 C78.4965923,45.3236931 78.4575285,44.4065075 78.380958,43.5 L53.9899131,43.5 L53.9899131,77.5627411 Z" id="Combined-Shape" stroke="#979797" stroke-width="0.5" fill="#AD343E"></path>
    </g>
</svg>